<svg width="41" height="41" viewBox="0 0 41 41" fill="none" xmlns="http://www.w3.org/2000/svg">
<path id="Vector" d="M41 20.5C41 31.8219 31.8219 41 20.5 41C9.17813 41 0 31.8219 0 20.5C0 9.17813 9.17813 0 20.5 0C31.8219 0 41 9.17813 41 20.5ZM18.1288 31.3546L33.3385 16.1449C33.8549 15.6284 33.8549 14.791 33.3385 14.2745L31.4681 12.4042C30.9516 11.8876 30.1142 11.8876 29.5976 12.4042L17.1935 24.8081L11.4024 19.017C10.8859 18.5005 10.0485 18.5005 9.53192 19.017L7.66154 20.8874C7.14508 21.4038 7.14508 22.2413 7.66154 22.7577L16.2583 31.3545C16.7749 31.8711 17.6122 31.8711 18.1288 31.3546Z" fill="#60CE80"/>
</svg>
