<svg width="83" height="70" viewBox="0 0 83 70" fill="none" xmlns="http://www.w3.org/2000/svg">
<path d="M39.9604 17.9287L13.684 41.3559V66.6406C13.684 67.2953 13.9243 67.9232 14.3519 68.3861C14.7796 68.849 15.3596 69.1091 15.9644 69.1091L31.9351 69.0643C32.5379 69.0611 33.115 68.7996 33.5402 68.337C33.9654 67.8744 34.2041 67.2484 34.204 66.5959V51.8299C34.204 51.1752 34.4443 50.5473 34.8719 50.0844C35.2996 49.6215 35.8796 49.3614 36.4844 49.3614H45.6056C46.2104 49.3614 46.7904 49.6215 47.2181 50.0844C47.6457 50.5473 47.886 51.1752 47.886 51.8299V66.5851C47.885 66.9099 47.9433 67.2317 48.0575 67.5321C48.1717 67.8325 48.3395 68.1055 48.5513 68.3355C48.7632 68.5656 49.0149 68.7481 49.292 68.8726C49.5691 68.9972 49.8662 69.0613 50.1663 69.0613L66.1313 69.1091C66.7361 69.1091 67.3161 68.849 67.7438 68.3861C68.1714 67.9232 68.4117 67.2953 68.4117 66.6406V41.3389L42.141 17.9287C41.8321 17.6592 41.4474 17.5123 41.0507 17.5123C40.654 17.5123 40.2693 17.6592 39.9604 17.9287ZM81.4665 33.8518L69.5518 23.2205V1.85134C69.5518 1.36034 69.3716 0.88944 69.0509 0.542246C68.7302 0.195052 68.2952 0 67.8416 0H59.8605C59.4069 0 58.9719 0.195052 58.6511 0.542246C58.3304 0.88944 58.1502 1.36034 58.1502 1.85134V13.0535L45.3904 1.68935C44.1659 0.598569 42.6294 0.00218049 41.0436 0.00218049C39.4578 0.00218049 37.9212 0.598569 36.6967 1.68935L0.620672 33.8518C0.447493 34.0067 0.304214 34.1971 0.199023 34.412C0.093832 34.6269 0.0287901 34.8622 0.00761363 35.1043C-0.0135628 35.3464 0.00954122 35.5907 0.0756057 35.8232C0.14167 36.0556 0.2494 36.2717 0.39264 36.4591L4.0269 41.2417C4.16975 41.4298 4.34545 41.5855 4.54396 41.6999C4.74246 41.8143 4.95986 41.8852 5.18372 41.9086C5.40757 41.932 5.63349 41.9073 5.84853 41.836C6.06357 41.7647 6.26351 41.6483 6.43691 41.4932L39.9604 11.6033C40.2693 11.3338 40.654 11.1868 41.0507 11.1868C41.4474 11.1868 41.8321 11.3338 42.141 11.6033L75.6659 41.4932C75.839 41.6483 76.0386 41.7649 76.2534 41.8364C76.4681 41.9079 76.6938 41.9329 76.9175 41.91C77.1411 41.8871 77.3585 41.8167 77.557 41.7028C77.7555 41.5889 77.9314 41.4338 78.0745 41.2464L81.7088 36.4637C81.8519 36.2753 81.9591 36.0581 82.0244 35.8246C82.0897 35.5911 82.1117 35.346 82.0892 35.1032C82.0667 34.8605 82.0001 34.625 81.8932 34.4103C81.7863 34.1955 81.6413 34.0057 81.4665 33.8518Z" fill="white"/>
</svg>
