<svg width="112" height="74" viewBox="0 0 112 74" fill="none" xmlns="http://www.w3.org/2000/svg">
<path d="M68.9604 17.9287L42.684 41.3559V66.6406C42.684 67.2953 42.9243 67.9232 43.3519 68.3861C43.7796 68.849 44.3596 69.1091 44.9644 69.1091L60.9351 69.0643C61.5379 69.0611 62.115 68.7996 62.5402 68.337C62.9654 67.8744 63.2041 67.2484 63.204 66.5959V51.8299C63.204 51.1752 63.4443 50.5473 63.8719 50.0844C64.2996 49.6215 64.8796 49.3614 65.4844 49.3614H74.6056C75.2104 49.3614 75.7904 49.6215 76.2181 50.0844C76.6457 50.5473 76.886 51.1752 76.886 51.8299V66.5851C76.885 66.9099 76.9433 67.2317 77.0575 67.5321C77.1717 67.8325 77.3395 68.1055 77.5513 68.3355C77.7632 68.5656 78.0149 68.7481 78.292 68.8726C78.5691 68.9972 78.8662 69.0613 79.1663 69.0613L95.1313 69.1091C95.7361 69.1091 96.3161 68.849 96.7438 68.3861C97.1714 67.9232 97.4117 67.2953 97.4117 66.6406V41.3389L71.141 17.9287C70.8321 17.6592 70.4474 17.5123 70.0507 17.5123C69.654 17.5123 69.2693 17.6592 68.9604 17.9287ZM110.466 33.8518L98.5518 23.2205V1.85134C98.5518 1.36034 98.3716 0.88944 98.0509 0.542246C97.7302 0.195052 97.2952 0 96.8416 0H88.8605C88.4069 0 87.9719 0.195052 87.6511 0.542246C87.3304 0.88944 87.1502 1.36034 87.1502 1.85134V13.0535L74.3904 1.68935C73.1659 0.598569 71.6294 0.00218049 70.0436 0.00218049C68.4578 0.00218049 66.9212 0.598569 65.6967 1.68935L29.6207 33.8518C29.4475 34.0067 29.3042 34.1971 29.199 34.412C29.0938 34.6269 29.0288 34.8622 29.0076 35.1043C28.9864 35.3464 29.0095 35.5907 29.0756 35.8232C29.1417 36.0556 29.2494 36.2717 29.3926 36.4591L33.0269 41.2417C33.1697 41.4298 33.3455 41.5855 33.544 41.6999C33.7425 41.8143 33.9599 41.8852 34.1837 41.9086C34.4076 41.932 34.6335 41.9073 34.8485 41.836C35.0636 41.7647 35.2635 41.6483 35.4369 41.4932L68.9604 11.6033C69.2693 11.3338 69.654 11.1868 70.0507 11.1868C70.4474 11.1868 70.8321 11.3338 71.141 11.6033L104.666 41.4932C104.839 41.6483 105.039 41.7649 105.253 41.8364C105.468 41.9079 105.694 41.9329 105.917 41.91C106.141 41.8871 106.358 41.8167 106.557 41.7028C106.756 41.5889 106.931 41.4338 107.075 41.2464L110.709 36.4637C110.852 36.2753 110.959 36.0581 111.024 35.8246C111.09 35.5911 111.112 35.346 111.089 35.1032C111.067 34.8605 111 34.625 110.893 34.4103C110.786 34.1955 110.641 34.0057 110.466 33.8518Z" fill="white"/>
<path d="M32.25 51.1367H23.8125V42.9805C23.8125 41.9796 22.9729 41.168 21.9375 41.168H20.0625C19.0271 41.168 18.1875 41.9796 18.1875 42.9805V51.1367H9.75C8.71465 51.1367 7.875 51.9484 7.875 52.9492V54.7617C7.875 55.7626 8.71465 56.5742 9.75 56.5742H18.1875V64.7305C18.1875 65.7313 19.0271 66.543 20.0625 66.543H21.9375C22.9729 66.543 23.8125 65.7313 23.8125 64.7305V56.5742H32.25C33.2854 56.5742 34.125 55.7626 34.125 54.7617V52.9492C34.125 51.9484 33.2854 51.1367 32.25 51.1367Z" fill="white"/>
<circle cx="20.5" cy="53.5" r="19" stroke="white" stroke-width="3"/>
</svg>
