<svg width="79" height="74" viewBox="0 0 79 74" fill="none" xmlns="http://www.w3.org/2000/svg">
<path d="M0 17.659L0.418412 13.4631C0.538852 12.2554 0.87817 11.0796 1.41977 9.99333L2.12612 8.57664C2.70511 7.41541 3.50456 6.37795 4.47989 5.52214L5.79878 4.36486C7.11487 3.21003 8.71111 2.42101 10.4278 2.0767L16.8163 0.79541V73.0682L8.40814 71.8636L7.24564 71.5305C2.95619 70.3015 0 66.3793 0 61.9173V17.659Z" fill="#29353C"/>
<path d="M5.20465 10.7954C5.20465 5.27256 9.6818 0.79541 15.2046 0.79541H68.0752C73.5981 0.79541 78.0752 5.27256 78.0752 10.7954V63.0681C78.0752 68.591 73.598 73.0681 68.0752 73.0681H15.2046C9.68179 73.0681 5.20465 68.591 5.20465 63.0681V10.7954Z" fill="#CFCFCF"/>
<path d="M36.4145 50.9311C36.4152 51.375 36.5461 51.8098 36.7917 52.1796L37.9945 53.9928C38.2 54.3027 38.4787 54.557 38.8058 54.7328C39.1329 54.9086 39.4983 55.0007 39.8695 55.0007H44.2126C44.5838 55.0007 44.9492 54.9086 45.2763 54.7328C45.6034 54.557 45.8821 54.3027 46.0876 53.9928L47.2904 52.1796C47.5359 51.8097 47.6671 51.3754 47.6676 50.9311L47.6704 48.2244H36.411L36.4145 50.9311ZM29.6537 31.2855C29.6537 34.417 30.8115 37.2741 32.7195 39.4571C33.8822 40.7875 35.7008 43.5669 36.3941 45.9115C36.3969 45.9299 36.399 45.9482 36.4018 45.9666H47.6796C47.6824 45.9482 47.6845 45.9306 47.6873 45.9115C48.3806 43.5669 50.1992 40.7875 51.3619 39.4571C53.2699 37.2741 54.4277 34.417 54.4277 31.2855C54.4277 24.4118 48.8613 18.8424 42.002 18.8636C34.8225 18.8855 29.6537 24.7195 29.6537 31.2855ZM42.0407 25.6392C38.9362 25.6392 36.4102 28.1722 36.4102 31.2855C36.4102 31.9094 35.9063 32.4147 35.2842 32.4147C34.662 32.4147 34.1581 31.9094 34.1581 31.2855C34.1581 26.9265 37.694 23.3806 42.0407 23.3806C42.6629 23.3806 43.1668 23.886 43.1668 24.5099C43.1668 25.1338 42.6629 25.6392 42.0407 25.6392Z" fill="#29353C"/>
</svg>
