<svg width="79" height="73" viewBox="0 0 79 73" fill="none" xmlns="http://www.w3.org/2000/svg">
<path d="M0 16.8636L0.418412 12.6677C0.538852 11.4599 0.87817 10.2842 1.41977 9.19792L2.12612 7.78123C2.70511 6.62 3.50456 5.58254 4.47989 4.72673L5.79878 3.56945C7.11487 2.41462 8.71111 1.6256 10.4278 1.28129L16.8163 0V72.2728L8.40814 71.0682L7.24564 70.7351C2.95619 69.5061 0 65.5839 0 61.1219V16.8636Z" fill="#29353C"/>
<path d="M5.20465 10C5.20465 4.47715 9.6818 0 15.2046 0H68.0752C73.5981 0 78.0752 4.47715 78.0752 10V62.2727C78.0752 67.7956 73.598 72.2727 68.0752 72.2727H15.2046C9.68179 72.2727 5.20465 67.7956 5.20465 62.2727V10Z" fill="#CFCFCF"/>
<path d="M46.5451 45.1704C46.5451 47.6651 44.5284 49.6875 42.0407 49.6875C39.553 49.6875 37.5363 47.6651 37.5363 45.1704C37.5363 43.4988 38.4426 42.0403 39.7885 41.2592V33.8778C39.7885 32.6305 40.7969 31.6193 42.0407 31.6193C43.2845 31.6193 44.2929 32.6305 44.2929 33.8778V41.2592C45.6388 42.0403 46.5451 43.4988 46.5451 45.1704ZM48.7972 39.1957C50.1987 40.7882 51.0494 42.8795 51.0494 45.1704C51.0494 50.1601 47.0164 54.2045 42.0407 54.2045C42.0197 54.2045 41.9978 54.2045 41.9767 54.2043C37.0288 54.1699 33.0069 50.0853 33.0321 45.1234C33.0437 42.8509 33.8924 40.7773 35.2842 39.1957V24.8437C35.2842 21.1017 38.3092 18.0682 42.0407 18.0682C45.7722 18.0682 48.7972 21.1017 48.7972 24.8437V39.1957ZM47.6712 45.1704C47.6712 42.7468 46.3079 41.4869 45.419 40.4768V24.8437C45.419 22.9757 43.9035 21.456 42.0407 21.456C40.1779 21.456 38.6624 22.9757 38.6624 24.8437V40.4768C37.7663 41.4951 36.4226 42.7424 36.4103 45.1407C36.3946 48.2374 38.9133 50.7951 42.0002 50.8166L42.0407 50.8167C45.1453 50.8167 47.6712 48.2838 47.6712 45.1704Z" fill="#29353C"/>
</svg>
