<svg width="34" height="26" viewBox="0 0 34 26" fill="none" xmlns="http://www.w3.org/2000/svg">
<g clip-path="url(#clip0_1514_2161)">
<path d="M25.1986 1.44238H2.29078C1.02608 1.44238 0 2.41131 0 3.60558V18.0269C0 19.2211 1.02608 20.1901 2.29078 20.1901H11.4539L10.6903 22.3533H7.25414C6.6194 22.3533 6.10875 22.8355 6.10875 23.4349C6.10875 24.0342 6.6194 24.5165 7.25414 24.5165H20.2352C20.87 24.5165 21.3806 24.0342 21.3806 23.4349C21.3806 22.8355 20.87 22.3533 20.2352 22.3533H16.7991L16.0355 20.1901H25.1986C26.4633 20.1901 27.4894 19.2211 27.4894 18.0269V3.60558C27.4894 2.41131 26.4633 1.44238 25.1986 1.44238ZM24.435 17.3058H3.05437V4.32664H24.435V17.3058Z" fill="black"/>
</g>
<g clip-path="url(#clip1_1514_2161)">
<path d="M28.9139 7.93164H21.0016C20.0656 7.93164 19.3062 8.68862 19.3062 9.62164V24.2683C19.3062 25.2013 20.0656 25.9583 21.0016 25.9583H28.9139C29.8499 25.9583 30.6093 25.2013 30.6093 24.2683V9.62164C30.6093 8.68862 29.8499 7.93164 28.9139 7.93164ZM24.9577 24.8316C24.3325 24.8316 23.8274 24.3281 23.8274 23.7049C23.8274 23.0817 24.3325 22.5783 24.9577 22.5783C25.583 22.5783 26.0881 23.0817 26.0881 23.7049C26.0881 24.3281 25.583 24.8316 24.9577 24.8316ZM28.9139 21.0291C28.9139 21.2615 28.7231 21.4516 28.49 21.4516H21.4255C21.1924 21.4516 21.0016 21.2615 21.0016 21.0291V10.0441C21.0016 9.81176 21.1924 9.62164 21.4255 9.62164H28.49C28.7231 9.62164 28.9139 9.81176 28.9139 10.0441V21.0291Z" fill="black"/>
</g>
<defs>
<clipPath id="clip0_1514_2161">
<rect width="27.4894" height="25.9583" fill="white"/>
</clipPath>
<clipPath id="clip1_1514_2161">
<rect width="18.0851" height="18.0266" fill="white" transform="translate(15.915 7.93164)"/>
</clipPath>
</defs>
</svg>
