<svg width="29" height="22" viewBox="0 0 29 22" fill="none" xmlns="http://www.w3.org/2000/svg">
<path d="M14.1156 6.41385L4.83311 13.5016V21.1514C4.83311 21.3494 4.91798 21.5394 5.06905 21.6794C5.22012 21.8195 5.42502 21.8982 5.63867 21.8982L11.2806 21.8846C11.4935 21.8836 11.6974 21.8045 11.8476 21.6646C11.9978 21.5246 12.0821 21.3352 12.0821 21.1378V16.6704C12.0821 16.4724 12.167 16.2824 12.318 16.1424C12.4691 16.0023 12.674 15.9236 12.8877 15.9236H16.1099C16.3235 15.9236 16.5284 16.0023 16.6795 16.1424C16.8306 16.2824 16.9154 16.4724 16.9154 16.6704V21.1345C16.9151 21.2328 16.9357 21.3302 16.976 21.4211C17.0164 21.5119 17.0757 21.5945 17.1505 21.6641C17.2253 21.7337 17.3142 21.789 17.4121 21.8266C17.51 21.8643 17.615 21.8837 17.721 21.8837L23.3609 21.8982C23.5745 21.8982 23.7794 21.8195 23.9305 21.6794C24.0816 21.5394 24.1664 21.3494 24.1664 21.1514V13.4965L14.8859 6.41385C14.7768 6.33232 14.6409 6.28786 14.5008 6.28786C14.3606 6.28786 14.2247 6.33232 14.1156 6.41385ZM28.7782 11.2313L24.5692 8.01484V1.54974C24.5692 1.40119 24.5056 1.25872 24.3923 1.15368C24.279 1.04864 24.1253 0.989624 23.9651 0.989624H21.1456C20.9854 0.989624 20.8317 1.04864 20.7184 1.15368C20.6051 1.25872 20.5414 1.40119 20.5414 1.54974V4.93889L16.0339 1.50073C15.6013 1.17072 15.0585 0.990284 14.4983 0.990284C13.9381 0.990284 13.3953 1.17072 12.9627 1.50073L0.218285 11.2313C0.157107 11.2782 0.106492 11.3358 0.0693313 11.4008C0.032171 11.4658 0.00919396 11.537 0.00171306 11.6102C-0.00576783 11.6835 0.00239401 11.7574 0.0257322 11.8277C0.0490705 11.898 0.0871277 11.9634 0.137729 12.0201L1.42158 13.4671C1.47205 13.524 1.53412 13.5711 1.60424 13.6057C1.67437 13.6403 1.75117 13.6618 1.83025 13.6688C1.90933 13.6759 1.98914 13.6684 2.0651 13.6469C2.14107 13.6253 2.2117 13.5901 2.27296 13.5432L14.1156 4.50013C14.2247 4.4186 14.3606 4.37414 14.5008 4.37414C14.6409 4.37414 14.7768 4.4186 14.8859 4.50013L26.7291 13.5432C26.7903 13.5901 26.8608 13.6253 26.9366 13.647C27.0125 13.6686 27.0922 13.6762 27.1712 13.6693C27.2503 13.6623 27.327 13.641 27.3972 13.6066C27.4673 13.5721 27.5294 13.5252 27.58 13.4685L28.8638 12.0215C28.9144 11.9645 28.9523 11.8988 28.9753 11.8281C28.9984 11.7575 29.0062 11.6833 28.9982 11.6099C28.9903 11.5365 28.9668 11.4652 28.929 11.4002C28.8912 11.3353 28.84 11.2778 28.7782 11.2313Z" fill="black"/>
</svg>
