<svg width="29" height="20" viewBox="0 0 29 20" fill="none" xmlns="http://www.w3.org/2000/svg">
<path d="M28.1504 10.5906L18.6348 18.7937C17.7852 19.5261 16.3125 19.0134 16.3125 17.9636V13.2761H8.60937C7.85605 13.2761 7.25 12.7537 7.25 12.1042V7.41675C7.25 6.76733 7.85605 6.24487 8.60937 6.24487H16.3125V1.55737C16.3125 0.512451 17.7795 -0.00512701 18.6348 0.727295L28.1504 8.93042C28.6771 9.3894 28.6771 10.1316 28.1504 10.5906ZM10.875 18.5496V16.5964C10.875 16.2742 10.5691 16.0105 10.1953 16.0105H5.4375C4.43496 16.0105 3.625 15.3123 3.625 14.448V5.073C3.625 4.20874 4.43496 3.5105 5.4375 3.5105H10.1953C10.5691 3.5105 10.875 3.24683 10.875 2.92456V0.971435C10.875 0.64917 10.5691 0.385498 10.1953 0.385498H5.4375C2.43555 0.385498 0 2.48511 0 5.073V14.448C0 17.0359 2.43555 19.1355 5.4375 19.1355H10.1953C10.5691 19.1355 10.875 18.8718 10.875 18.5496Z" fill="black"/>
</svg>
