<svg width="29" height="20" viewBox="0 0 29 20" fill="none" xmlns="http://www.w3.org/2000/svg">
<path d="M28.1504 10.5909L18.6348 18.794C17.7852 19.5264 16.3125 19.0137 16.3125 17.9639V13.2764H8.60937C7.85605 13.2764 7.25 12.754 7.25 12.1046V7.41705C7.25 6.76764 7.85605 6.24518 8.60937 6.24518H16.3125V1.55768C16.3125 0.512757 17.7795 -0.00482088 18.6348 0.727601L28.1504 8.93073C28.6771 9.38971 28.6771 10.1319 28.1504 10.5909ZM10.875 18.5499V16.5967C10.875 16.2745 10.5691 16.0108 10.1953 16.0108H5.4375C4.43496 16.0108 3.625 15.3126 3.625 14.4483V5.0733C3.625 4.20905 4.43496 3.5108 5.4375 3.5108H10.1953C10.5691 3.5108 10.875 3.24713 10.875 2.92487V0.971742C10.875 0.649476 10.5691 0.385804 10.1953 0.385804H5.4375C2.43555 0.385804 0 2.48541 0 5.0733V14.4483C0 17.0362 2.43555 19.1358 5.4375 19.1358H10.1953C10.5691 19.1358 10.875 18.8721 10.875 18.5499Z" fill="black"/>
</svg>
