<svg width="41" height="40" viewBox="0 0 41 40" fill="none" xmlns="http://www.w3.org/2000/svg">
<ellipse cx="20.5" cy="20" rx="20.5" ry="20" fill="#696969"/>
<path d="M36.1504 20.9299L26.6348 30.1174C25.7852 30.9377 24.3125 30.3635 24.3125 29.1877V23.9377H16.6094C15.8561 23.9377 15.25 23.3525 15.25 22.6252V17.3752C15.25 16.6478 15.8561 16.0627 16.6094 16.0627H24.3125V10.8127C24.3125 9.64237 25.7795 9.06269 26.6348 9.883L36.1504 19.0705C36.6771 19.5846 36.6771 20.4158 36.1504 20.9299ZM18.875 29.8439V27.6564C18.875 27.2955 18.5691 27.0002 18.1953 27.0002H13.4375C12.435 27.0002 11.625 26.2182 11.625 25.2502V14.7502C11.625 13.7822 12.435 13.0002 13.4375 13.0002H18.1953C18.5691 13.0002 18.875 12.7049 18.875 12.3439V10.1564C18.875 9.7955 18.5691 9.50019 18.1953 9.50019H13.4375C10.4355 9.50019 8 11.8517 8 14.7502V25.2502C8 28.1486 10.4355 30.5002 13.4375 30.5002H18.1953C18.5691 30.5002 18.875 30.2049 18.875 29.8439Z" fill="white"/>
</svg>
