<svg width="22" height="19" viewBox="0 0 22 19" fill="none" xmlns="http://www.w3.org/2000/svg">
<path d="M21.3125 14.5685H6.875V13.9063C6.875 13.542 6.56563 13.244 6.1875 13.244H4.8125C4.43437 13.244 4.125 13.542 4.125 13.9063V14.5685H0.6875C0.309375 14.5685 0 14.8664 0 15.2307V16.5551C0 16.9193 0.309375 17.2173 0.6875 17.2173H4.125V17.8795C4.125 18.2437 4.43437 18.5417 4.8125 18.5417H6.1875C6.56563 18.5417 6.875 18.2437 6.875 17.8795V17.2173H21.3125C21.6906 17.2173 22 16.9193 22 16.5551V15.2307C22 14.8664 21.6906 14.5685 21.3125 14.5685ZM21.3125 7.94643H17.875V7.28423C17.875 6.92001 17.5656 6.62202 17.1875 6.62202H15.8125C15.4344 6.62202 15.125 6.92001 15.125 7.28423V7.94643H0.6875C0.309375 7.94643 0 8.24442 0 8.60863V9.93304C0 10.2972 0.309375 10.5952 0.6875 10.5952H15.125V11.2574C15.125 11.6217 15.4344 11.9196 15.8125 11.9196H17.1875C17.5656 11.9196 17.875 11.6217 17.875 11.2574V10.5952H21.3125C21.6906 10.5952 22 10.2972 22 9.93304V8.60863C22 8.24442 21.6906 7.94643 21.3125 7.94643ZM21.3125 1.3244H12.375V0.662202C12.375 0.297991 12.0656 0 11.6875 0H10.3125C9.93437 0 9.625 0.297991 9.625 0.662202V1.3244H0.6875C0.309375 1.3244 0 1.6224 0 1.98661V3.31101C0 3.67522 0.309375 3.97321 0.6875 3.97321H9.625V4.63542C9.625 4.99963 9.93437 5.29762 10.3125 5.29762H11.6875C12.0656 5.29762 12.375 4.99963 12.375 4.63542V3.97321H21.3125C21.6906 3.97321 22 3.67522 22 3.31101V1.98661C22 1.6224 21.6906 1.3244 21.3125 1.3244Z" fill="black"/>
</svg>
