<svg width="21" height="22" viewBox="0 0 21 22" fill="none" xmlns="http://www.w3.org/2000/svg">
<path d="M10.5 22C12.0867 22 13.3737 20.7689 13.3737 19.25H7.62638C7.62638 20.7689 8.91339 22 10.5 22ZM20.1758 15.5671C19.3079 14.6751 17.6839 13.3332 17.6839 8.9375C17.6839 5.59883 15.2366 2.92617 11.9366 2.27047V1.375C11.9366 0.615742 11.2933 0 10.5 0C9.70671 0 9.06343 0.615742 9.06343 1.375V2.27047C5.76347 2.92617 3.31612 5.59883 3.31612 8.9375C3.31612 13.3332 1.6922 14.6751 0.824308 15.5671C0.554777 15.8443 0.435285 16.1756 0.437531 16.5C0.442472 17.2047 1.02062 17.875 1.87952 17.875H19.1205C19.9794 17.875 20.558 17.2047 20.5625 16.5C20.5648 16.1756 20.4453 15.8439 20.1758 15.5671Z" fill="white"/>
</svg>
