<svg width="27" height="21" viewBox="0 0 27 21" fill="none" xmlns="http://www.w3.org/2000/svg">
<path d="M26.325 18.025H22.95V4.94032C22.95 3.87414 22.0417 3.00626 20.925 3.00626H16.2V5.50939H20.25V20.5281H26.325C26.6979 20.5281 27 20.2481 27 19.9024V18.6508C27 18.305 26.6979 18.025 26.325 18.025ZM13.1726 0.542638L5.07263 2.48804C4.47145 2.63236 4.05 3.15097 4.05 3.74625V18.025H0.675C0.302063 18.025 0 18.305 0 18.6508V19.9024C0 20.2481 0.302063 20.5281 0.675 20.5281H14.85V1.80085C14.85 0.956827 14.0248 0.337695 13.1726 0.542638ZM11.1375 11.7672C10.5785 11.7672 10.125 11.2067 10.125 10.5156C10.125 9.82454 10.5785 9.26407 11.1375 9.26407C11.6965 9.26407 12.15 9.82454 12.15 10.5156C12.15 11.2067 11.6965 11.7672 11.1375 11.7672Z" fill="black"/>
</svg>
