<svg width="25" height="24" viewBox="0 0 25 24" fill="none" xmlns="http://www.w3.org/2000/svg">
<path d="M23.7986 14.2906L21.7186 13.177C21.9285 12.1268 21.9285 11.0494 21.7186 9.99923L23.7986 8.88564C24.0379 8.75889 24.1453 8.49634 24.0672 8.25189C23.5252 6.64036 22.6024 5.18274 21.3963 3.96956C21.2107 3.78397 20.908 3.7387 20.6736 3.86545L18.5936 4.97904C17.7195 4.28191 16.7137 3.74323 15.6248 3.39014V1.16749C15.6248 0.913993 15.4344 0.692181 15.1658 0.63786C13.3738 0.266664 11.5379 0.284771 9.83379 0.63786C9.56524 0.692181 9.37481 0.913993 9.37481 1.16749V3.39467C8.29083 3.75228 7.28497 4.29097 6.40606 4.98356L4.33086 3.86998C4.09161 3.74323 3.79376 3.78397 3.60821 3.97409C2.40215 5.18274 1.4793 6.64036 0.937311 8.25642C0.854303 8.50086 0.966607 8.76342 1.20587 8.89017L3.28594 10.0038C3.07598 11.054 3.07598 12.1313 3.28594 13.1816L1.20587 14.2951C0.966607 14.4219 0.859186 14.6844 0.937311 14.9289C1.4793 16.5404 2.40215 17.998 3.60821 19.2112C3.79376 19.3968 4.09649 19.4421 4.33086 19.3153L6.41094 18.2017C7.28497 18.8989 8.29083 19.4376 9.37969 19.7906V22.0178C9.37969 22.2713 9.57012 22.4931 9.83868 22.5474C11.6307 22.9186 13.4666 22.9005 15.1707 22.5474C15.4393 22.4931 15.6297 22.2713 15.6297 22.0178V19.7906C16.7137 19.433 17.7195 18.8943 18.5984 18.2017L20.6785 19.3153C20.9178 19.4421 21.2156 19.4013 21.4012 19.2112C22.6072 18.0026 23.5301 16.5449 24.0721 14.9289C24.1453 14.6799 24.0379 14.4174 23.7986 14.2906ZM12.4998 15.2095C10.3465 15.2095 8.59356 13.5844 8.59356 11.5881C8.59356 9.59182 10.3465 7.96671 12.4998 7.96671C14.6531 7.96671 16.4061 9.59182 16.4061 11.5881C16.4061 13.5844 14.6531 15.2095 12.4998 15.2095Z" fill="black"/>
</svg>
