<svg width="41" height="40" viewBox="0 0 41 40" fill="none" xmlns="http://www.w3.org/2000/svg">
<ellipse cx="20.5" cy="20" rx="20.5" ry="20" fill="#696969"/>
<path d="M33.5506 22.8219L31.1378 21.4766C31.3813 20.2079 31.3813 18.9063 31.1378 17.6375L33.5506 16.2922C33.8282 16.1391 33.9528 15.8219 33.8622 15.5266C33.2335 13.5797 32.1629 11.8188 30.7639 10.3532C30.5487 10.129 30.1975 10.0743 29.9256 10.2274L27.5128 11.5727C26.4989 10.7305 25.3321 10.0797 24.069 9.65318V6.96802C24.069 6.66177 23.8481 6.3938 23.5366 6.32818C21.4579 5.87974 19.3282 5.90161 17.3514 6.32818C17.0399 6.3938 16.819 6.66177 16.819 6.96802V9.65864C15.5616 10.0907 14.3948 10.7415 13.3752 11.5782L10.968 10.2329C10.6905 10.0797 10.345 10.129 10.1297 10.3586C8.73072 11.8188 7.66021 13.5797 7.0315 15.5321C6.93521 15.8274 7.06548 16.1446 7.34302 16.2977L9.75591 17.643C9.51236 18.9118 9.51236 20.2133 9.75591 21.4821L7.34302 22.8274C7.06548 22.9805 6.94087 23.2977 7.0315 23.593C7.66021 25.5399 8.73072 27.3008 10.1297 28.7665C10.345 28.9907 10.6961 29.0454 10.968 28.8922L13.3809 27.5469C14.3948 28.3891 15.5616 29.0399 16.8247 29.4665V32.1571C16.8247 32.4633 17.0456 32.7313 17.3571 32.7969C19.4358 33.2454 21.5655 33.2235 23.5422 32.7969C23.8538 32.7313 24.0747 32.4633 24.0747 32.1571V29.4665C25.3321 29.0344 26.4989 28.3836 27.5184 27.5469L29.9313 28.8922C30.2088 29.0454 30.5544 28.9961 30.7696 28.7665C32.1686 27.3063 33.2391 25.5454 33.8678 23.593C33.9528 23.2922 33.8282 22.975 33.5506 22.8219ZM20.444 23.9321C17.9461 23.9321 15.9128 21.9688 15.9128 19.5571C15.9128 17.1454 17.9461 15.1821 20.444 15.1821C22.9419 15.1821 24.9753 17.1454 24.9753 19.5571C24.9753 21.9688 22.9419 23.9321 20.444 23.9321Z" fill="white"/>
</svg>
