<svg width="619" height="478" viewBox="0 0 619 478" fill="none" xmlns="http://www.w3.org/2000/svg">
<path d="M202.124 157.776H514.698V393.383L202.124 420.182V157.776Z" fill="#D9D9D9"/>
<rect x="132.145" y="157.776" width="69.9793" height="262.406" fill="#A9A9A9"/>
<path d="M132.145 393.496L258.458 441.307L258.458 456.127L261.782 462.267L263.444 465.951L265.106 469.636V475.776L260.44 476.888H255.775L247.611 475.776L240.176 474.548L235.19 473.32L231.866 472.092L135.187 430.944C133.342 430.159 132.145 428.348 132.145 426.343V393.496Z" fill="#696969"/>
<path d="M248.776 436.86L553.195 409.062V439.065C553.195 441.609 551.285 443.747 548.758 444.033L254.339 477.37C251.374 477.705 248.776 475.386 248.776 472.401V436.86Z" fill="#D9D9D9"/>
<path d="M202.124 405.727L514.698 381.266V393.496L202.124 420.182V405.727Z" fill="#555F64"/>
<path d="M132.145 379.042L202.124 405.727V420.182L132.145 393.497V379.042Z" fill="#29353C"/>
<path d="M365.66 215.845H484.125V400.818L365.66 411.015V215.845Z" fill="#D9D9D9" stroke="black" stroke-width="0.5"/>
<path d="M386.404 235.608H465.714V382.426L386.404 389.049V235.608Z" fill="#EBEBEB"/>
<path d="M440.055 235.608H458.716L387.57 321.224V297.874L440.055 235.608Z" fill="white"/>
<path d="M465.714 235.608V245.43L386.404 342.35V330.119L465.714 235.608Z" fill="white"/>
<path d="M465.713 295.65V311.217L407.397 386.825H394.567L465.713 295.65Z" fill="white"/>
<line x1="386.404" y1="235.359" x2="465.714" y2="235.359" stroke="#696969" stroke-width="0.5"/>
<line x1="386.654" y1="235.609" x2="386.654" y2="389.05" stroke="#696969" stroke-width="0.5"/>
<line y1="-0.25" x2="79.59" y2="-0.25" transform="matrix(0.996481 -0.0838212 0.0921611 0.995744 386.404 389.05)" stroke="white" stroke-width="0.5"/>
<g filter="url(#filter0_d_1263_829)">
<path d="M466.052 234.497L466.052 382.378" stroke="white" stroke-width="0.5"/>
</g>
<rect x="468.046" y="297.875" width="6.99793" height="20.014" rx="3.49896" fill="black"/>
<rect width="3.78512" height="18.1194" rx="1.89256" transform="matrix(0.00840263 -0.999965 0.999974 0.0072097 456.924 306.163)" fill="black"/>
<path d="M232.698 235.858H337.167V340.743L232.698 346.533V235.858Z" fill="#D9D9D9" stroke="black" stroke-width="0.5"/>
<path d="M241.78 244.504H279.102V333.607L241.78 335.679V244.504Z" fill="#EBEBEB"/>
<path d="M268.605 245.159H279.102L242.327 293.426V278.972L268.605 245.159Z" fill="white"/>
<path d="M278.943 249.259V255.622L241.779 305.657V298.563L278.943 249.259Z" fill="white"/>
<path d="M279.101 278.973V291.203L248.777 334.567H242.945L241.779 332.343L279.101 278.973Z" fill="white"/>
<line x1="241.779" y1="244.91" x2="278.943" y2="244.91" stroke="#696969" stroke-width="0.5"/>
<line x1="242.029" y1="245.16" x2="242.029" y2="335.679" stroke="#696969" stroke-width="0.5"/>
<line y1="-0.25" x2="37.3795" y2="-0.25" transform="matrix(0.99847 -0.0552994 0.0556411 0.998451 241.779 335.679)" stroke="white" stroke-width="0.5"/>
<g filter="url(#filter1_d_1263_829)">
<path d="M279.102 244.504L279.102 333.607" stroke="white" stroke-width="0.5"/>
</g>
<path d="M293.098 244.504H330.42V331.386L293.098 333.455V244.504Z" fill="#EBEBEB"/>
<path d="M319.923 245.159H330.42L293.645 293.426V278.972L319.923 245.159Z" fill="white"/>
<path d="M330.26 248.951V255.315L293.097 305.35V298.256L330.26 248.951Z" fill="white"/>
<path d="M330.419 278.973V291.203L302.427 332.343H296.596H293.097L330.419 278.973Z" fill="white"/>
<line x1="293.097" y1="244.907" x2="330.26" y2="244.907" stroke="#696969" stroke-width="0.5"/>
<path d="M293.618 245.157L293.618 332.913" stroke="#696969" stroke-width="0.5"/>
<line y1="-0.25" x2="37.3657" y2="-0.25" transform="matrix(0.998766 -0.0496605 0.0501375 0.998742 293.097 333.245)" stroke="white" stroke-width="0.5"/>
<g filter="url(#filter2_d_1263_829)">
<path d="M330.418 244.503L330.418 331.594" stroke="white" stroke-width="0.5"/>
</g>
<line x1="286.249" y1="235.608" x2="286.249" y2="342.35" stroke="#696969" stroke-width="0.3"/>
<path d="M202.124 420.181L515.189 393.496L552.02 409.063L249.314 437.972L202.124 420.181Z" fill="white"/>
<path d="M132.145 162.224L202.124 166.11V295.65L132.145 278.81V162.224Z" fill="#696969" fill-opacity="0.45"/>
<path d="M202.124 295.65L514.698 157.776H202.124V295.65Z" fill="#A9A9A9" fill-opacity="0.45"/>
<path d="M373.572 21.0137L515.863 158.888H234.252L373.572 21.0137Z" fill="#A9A9A9"/>
<ellipse cx="373.573" cy="107.74" rx="24.4928" ry="23.3496" fill="#D9D9D9"/>
<path d="M398.065 111.076C396.899 122.195 385.235 132.202 372.406 131.09C384.068 129.066 393.398 119.972 394.565 111.076C395.731 94.3981 384.068 85.503 372.406 84.3911C382.903 82.1674 399.98 92.82 398.065 111.076Z" fill="black"/>
<path d="M373.572 21.0136L387.568 7.6709L548.52 161.111L513.53 158.888L373.572 21.0136Z" fill="#D9D9D9"/>
<path d="M408.562 28.7972V1L580.319 167.227L577.776 168.339L574.151 169.451L570.525 170.563L564.483 171.675H562.066H559.649L557.232 170.563L556.023 169.451L554.815 168.339L553.591 167.227L408.562 28.7972Z" fill="#29353C"/>
<path d="M408.562 28.7972V1L193.958 168.895L199.79 171.119L203.289 172.231L206.788 173.343L212.62 174.454H214.952H217.285L219.617 173.343L220.784 172.231L221.95 171.119L223.132 170.007L408.562 28.7972Z" fill="#29353C"/>
<path d="M276.055 21.7738L275.934 21.7927L275.835 21.8658L92.1921 157.586L91.1483 158.357L92.4398 158.485L193.778 168.548L193.978 168.568L194.136 168.444L405.786 2.50579L407.294 1.32314L405.4 1.61827L276.055 21.7738Z" fill="#41525C" stroke="black"/>
<path d="M0 363.637L0.418412 359.441C0.538852 358.233 0.878169 357.058 1.41977 355.971L2.12612 354.555C2.70511 353.393 3.50456 352.356 4.47989 351.5L5.79878 350.343C7.11487 349.188 8.71111 348.399 10.4278 348.055L16.8163 346.773V419.046L8.40814 417.842L7.24564 417.509C2.95619 416.28 0 412.357 0 407.895V363.637Z" fill="#29353C"/>
<rect x="5.20459" y="346.773" width="72.8705" height="72.2727" rx="10" fill="#CFCFCF"/>
<g clip-path="url(#clip0_1263_829)">
<path d="M44.0973 366.401C43.5385 364.37 40.6177 364.275 39.9843 366.401C36.6926 377.535 29.6538 380.561 29.6538 388.409C29.6538 395.357 35.1942 400.978 42.0408 400.978C48.8874 400.978 54.4278 395.357 54.4278 388.409C54.4278 380.522 47.4045 377.586 44.0973 366.401ZM42.0408 396.461C37.6948 396.461 34.1582 392.915 34.1582 388.556C34.1582 387.932 34.6621 387.427 35.2843 387.427C35.9064 387.427 36.4103 387.932 36.4103 388.556C36.4103 391.67 38.9363 394.203 42.0408 394.203C42.663 394.203 43.1669 394.708 43.1669 395.332C43.1669 395.956 42.663 396.461 42.0408 396.461Z" fill="#29353C"/>
</g>
<path d="M0 264.864L0.418412 260.668C0.538852 259.46 0.878169 258.284 1.41977 257.198L2.12612 255.781C2.70511 254.62 3.50456 253.583 4.47989 252.727L5.79878 251.569C7.11487 250.415 8.71111 249.626 10.4278 249.281L16.8163 248V320.273L8.40814 319.068L7.24564 318.735C2.95619 317.506 0 313.584 0 309.122V264.864Z" fill="#29353C"/>
<rect x="5.20459" y="248" width="72.8705" height="72.2727" rx="10" fill="#CFCFCF"/>
<g clip-path="url(#clip1_1263_829)">
<path d="M46.5453 293.171C46.5453 295.665 44.5286 297.688 42.0409 297.688C39.5533 297.688 37.5366 295.665 37.5366 293.171C37.5366 291.499 38.4428 290.041 39.7887 289.259V281.878C39.7887 280.631 40.7971 279.619 42.0409 279.619C43.2848 279.619 44.2931 280.631 44.2931 281.878V289.259C45.6391 290.041 46.5453 291.499 46.5453 293.171ZM48.7975 287.196C50.1989 288.788 51.0496 290.88 51.0496 293.171C51.0496 298.16 47.0166 302.205 42.0409 302.205C42.0199 302.205 41.9981 302.205 41.977 302.205C37.0291 302.17 33.0071 298.085 33.0323 293.124C33.0439 290.851 33.8926 288.777 35.2844 287.196V272.844C35.2844 269.102 38.3094 266.068 42.0409 266.068C45.7724 266.068 48.7975 269.102 48.7975 272.844V287.196ZM47.6714 293.171C47.6714 290.747 46.3081 289.487 45.4192 288.477V272.844C45.4192 270.976 43.9037 269.456 42.0409 269.456C40.1782 269.456 38.6627 270.976 38.6627 272.844V288.477C37.7666 289.495 36.4228 290.743 36.4105 293.141C36.3948 296.238 38.9135 298.795 42.0004 298.817L42.0409 298.817C45.1456 298.817 47.6714 296.284 47.6714 293.171Z" fill="#29353C"/>
</g>
<path d="M0 167.227L0.418412 163.031C0.538852 161.823 0.878169 160.647 1.41977 159.561L2.12612 158.145C2.70511 156.983 3.50456 155.946 4.47989 155.09L5.79878 153.933C7.11487 152.778 8.71111 151.989 10.4278 151.645L16.8163 150.363V222.636L8.40814 221.431L7.24564 221.098C2.95619 219.869 0 215.947 0 211.485V167.227Z" fill="#29353C"/>
<rect x="5.20459" y="150.363" width="72.8705" height="72.2727" rx="10" fill="#CFCFCF"/>
<g clip-path="url(#clip2_1263_829)">
<path d="M46.5453 178.595V170.69C46.5453 169.443 47.5536 168.432 48.7975 168.432C50.0413 168.432 51.0496 169.443 51.0496 170.69V178.595H46.5453ZM54.4279 179.724H29.6539C29.032 179.724 28.5278 180.23 28.5278 180.854V183.112C28.5278 183.736 29.032 184.241 29.6539 184.241H30.78V186.5C30.78 191.963 34.6488 196.52 39.7887 197.566V204.568H44.2931V197.566C49.4331 196.52 53.3018 191.963 53.3018 186.5V184.241H54.4279C55.0499 184.241 55.554 183.736 55.554 183.112V180.854C55.554 180.23 55.0499 179.724 54.4279 179.724ZM37.5366 178.595V170.69C37.5366 169.443 36.5282 168.432 35.2844 168.432C34.0405 168.432 33.0322 169.443 33.0322 170.69V178.595H37.5366Z" fill="#29353C"/>
</g>
<path d="M0 69.6586L0.418412 65.4627C0.538852 64.2549 0.878169 63.0791 1.41977 61.9928L2.12612 60.5762C2.70511 59.4149 3.50456 58.3775 4.47989 57.5217L5.79878 56.3644C7.11487 55.2095 8.71111 54.4205 10.4278 54.0762L16.8163 52.7949V125.068L8.40814 123.863L7.24564 123.53C2.95619 122.301 0 118.379 0 113.917V69.6586Z" fill="#29353C"/>
<rect x="5.20459" y="52.7949" width="72.8705" height="72.2727" rx="10" fill="#CFCFCF"/>
<g clip-path="url(#clip3_1263_829)">
<path d="M36.4146 102.931C36.4153 103.375 36.5462 103.81 36.7918 104.179L37.9946 105.993C38.2001 106.302 38.4788 106.557 38.8059 106.733C39.133 106.908 39.4984 107 39.8696 107H44.2127C44.5839 107 44.9493 106.908 45.2764 106.733C45.6035 106.557 45.8822 106.302 46.0877 105.993L47.2905 104.179C47.536 103.809 47.6672 103.375 47.6677 102.931L47.6705 100.224H36.4111L36.4146 102.931ZM29.6538 83.2852C29.6538 86.4168 30.8116 89.2738 32.7196 91.4568C33.8823 92.7872 35.7009 95.5666 36.3942 97.9113C36.397 97.9296 36.3991 97.948 36.4019 97.9663H47.6797C47.6825 97.948 47.6846 97.9303 47.6874 97.9113C48.3807 95.5666 50.1993 92.7872 51.362 91.4568C53.27 89.2738 54.4278 86.4168 54.4278 83.2852C54.4278 76.4115 48.8614 70.8422 42.0021 70.8633C34.8226 70.8852 29.6538 76.7193 29.6538 83.2852ZM42.0408 77.6389C38.9363 77.6389 36.4103 80.172 36.4103 83.2852C36.4103 83.9091 35.9064 84.4145 35.2843 84.4145C34.6621 84.4145 34.1582 83.9091 34.1582 83.2852C34.1582 78.9263 37.6941 75.3804 42.0408 75.3804C42.663 75.3804 43.1669 75.8857 43.1669 76.5096C43.1669 77.1336 42.663 77.6389 42.0408 77.6389Z" fill="#29353C"/>
</g>
<g clip-path="url(#clip4_1263_829)">
<path d="M609.522 70.954C596.823 45.725 566.683 34.4848 540.636 45.2475C539.657 45.6522 539.217 46.7924 539.661 47.7571L542.022 52.8855C542.445 53.806 543.52 54.2236 544.456 53.8415C565.864 45.1153 590.517 54.3111 601.03 74.9534C601.49 75.8563 602.576 76.2442 603.496 75.8259L608.625 73.4925C609.589 73.0532 610 71.9023 609.522 70.954ZM567.046 79.7502C563.179 78.3074 558.878 80.2847 557.437 84.1671C555.997 88.0496 557.962 92.3655 561.829 93.8084C565.695 95.2512 569.996 93.274 571.437 89.3915C572.878 85.5091 570.912 81.1931 567.046 79.7502ZM592.619 78.8417C584.167 62.9424 565.027 55.8138 548.285 62.2975C547.282 62.6859 546.826 63.84 547.28 64.8168L549.661 69.9556C550.076 70.8507 551.116 71.2889 552.04 70.9434C564.18 66.3996 577.932 71.5514 584.141 82.9224C584.614 83.7895 585.687 84.1409 586.585 83.7345L591.737 81.4071C592.718 80.9654 593.125 79.7918 592.619 78.8417Z" fill="#29353C"/>
</g>
<defs>
<filter id="filter0_d_1263_829" x="461.802" y="234.497" width="8.5" height="155.881" filterUnits="userSpaceOnUse" color-interpolation-filters="sRGB">
<feFlood flood-opacity="0" result="BackgroundImageFix"/>
<feColorMatrix in="SourceAlpha" type="matrix" values="0 0 0 0 0 0 0 0 0 0 0 0 0 0 0 0 0 0 127 0" result="hardAlpha"/>
<feOffset dy="4"/>
<feGaussianBlur stdDeviation="2"/>
<feComposite in2="hardAlpha" operator="out"/>
<feColorMatrix type="matrix" values="0 0 0 0 0 0 0 0 0 0 0 0 0 0 0 0 0 0 0.25 0"/>
<feBlend mode="normal" in2="BackgroundImageFix" result="effect1_dropShadow_1263_829"/>
<feBlend mode="normal" in="SourceGraphic" in2="effect1_dropShadow_1263_829" result="shape"/>
</filter>
<filter id="filter1_d_1263_829" x="274.852" y="244.504" width="8.5" height="97.1025" filterUnits="userSpaceOnUse" color-interpolation-filters="sRGB">
<feFlood flood-opacity="0" result="BackgroundImageFix"/>
<feColorMatrix in="SourceAlpha" type="matrix" values="0 0 0 0 0 0 0 0 0 0 0 0 0 0 0 0 0 0 127 0" result="hardAlpha"/>
<feOffset dy="4"/>
<feGaussianBlur stdDeviation="2"/>
<feComposite in2="hardAlpha" operator="out"/>
<feColorMatrix type="matrix" values="0 0 0 0 0 0 0 0 0 0 0 0 0 0 0 0 0 0 0.25 0"/>
<feBlend mode="normal" in2="BackgroundImageFix" result="effect1_dropShadow_1263_829"/>
<feBlend mode="normal" in="SourceGraphic" in2="effect1_dropShadow_1263_829" result="shape"/>
</filter>
<filter id="filter2_d_1263_829" x="326.168" y="244.503" width="8.5" height="95.0908" filterUnits="userSpaceOnUse" color-interpolation-filters="sRGB">
<feFlood flood-opacity="0" result="BackgroundImageFix"/>
<feColorMatrix in="SourceAlpha" type="matrix" values="0 0 0 0 0 0 0 0 0 0 0 0 0 0 0 0 0 0 127 0" result="hardAlpha"/>
<feOffset dy="4"/>
<feGaussianBlur stdDeviation="2"/>
<feComposite in2="hardAlpha" operator="out"/>
<feColorMatrix type="matrix" values="0 0 0 0 0 0 0 0 0 0 0 0 0 0 0 0 0 0 0.25 0"/>
<feBlend mode="normal" in2="BackgroundImageFix" result="effect1_dropShadow_1263_829"/>
<feBlend mode="normal" in="SourceGraphic" in2="effect1_dropShadow_1263_829" result="shape"/>
</filter>
<clipPath id="clip0_1263_829">
<rect width="36.0349" height="36.1364" fill="white" transform="translate(24.0234 364.842)"/>
</clipPath>
<clipPath id="clip1_1263_829">
<rect width="36.0349" height="36.1364" fill="white" transform="translate(24.0234 266.068)"/>
</clipPath>
<clipPath id="clip2_1263_829">
<rect width="36.0349" height="36.1364" fill="white" transform="translate(24.0234 168.432)"/>
</clipPath>
<clipPath id="clip3_1263_829">
<rect width="36.0349" height="36.1364" fill="white" transform="translate(24.0234 70.8633)"/>
</clipPath>
<clipPath id="clip4_1263_829">
<rect width="74.7025" height="74.9865" fill="white" transform="matrix(0.937045 0.349681 -0.347843 0.937378 549 21)"/>
</clipPath>
</defs>
</svg>
