<svg width="79" height="74" viewBox="0 0 79 74" fill="none" xmlns="http://www.w3.org/2000/svg">
<path d="M0 17.6366L0.418412 13.4407C0.538852 12.2329 0.87817 11.0571 1.41977 9.97087L2.12612 8.55418C2.70511 7.39295 3.50456 6.35549 4.47989 5.49968L5.79878 4.3424C7.11487 3.18757 8.71111 2.39855 10.4278 2.05424L16.8163 0.772949V73.0458L8.40814 71.8411L7.24564 71.508C2.95619 70.279 0 66.3569 0 61.8948V17.6366Z" fill="#29353C"/>
<path d="M5.20465 10.7729C5.20465 5.2501 9.6818 0.772949 15.2046 0.772949H68.0752C73.5981 0.772949 78.0752 5.2501 78.0752 10.7729V63.0457C78.0752 68.5685 73.598 73.0457 68.0752 73.0457H15.2046C9.68179 73.0457 5.20465 68.5685 5.20465 63.0457V10.7729Z" fill="#CFCFCF"/>
<path d="M44.0972 20.4002C43.5384 18.369 40.6176 18.2744 39.9842 20.4002C36.6925 31.5347 29.6537 34.5604 29.6537 42.4081C29.6537 49.3559 35.1941 54.9775 42.0407 54.9775C48.8873 54.9775 54.4277 49.3559 54.4277 42.4081C54.4277 34.5209 47.4044 31.5855 44.0972 20.4002ZM42.0407 50.4604C37.6947 50.4604 34.1581 46.9139 34.1581 42.5556C34.1581 41.9317 34.662 41.4263 35.2842 41.4263C35.9063 41.4263 36.4102 41.9317 36.4102 42.5556C36.4102 45.6688 38.9362 48.2019 42.0407 48.2019C42.6629 48.2019 43.1668 48.7073 43.1668 49.3312C43.1668 49.9551 42.6629 50.4604 42.0407 50.4604Z" fill="#29353C"/>
</svg>
