<svg width="79" height="73" viewBox="0 0 79 73" fill="none" xmlns="http://www.w3.org/2000/svg">
<path d="M0 17.2272L0.418412 13.0313C0.538852 11.8235 0.87817 10.6477 1.41977 9.56145L2.12612 8.14475C2.70511 6.98352 3.50456 5.94607 4.47989 5.09025L5.79878 3.93297C7.11487 2.77815 8.71111 1.98912 10.4278 1.64481L16.8163 0.363525V72.6363L8.40814 71.4317L7.24564 71.0986C2.95619 69.8696 0 65.9475 0 61.4854V17.2272Z" fill="#29353C"/>
<path d="M5.20465 10.3635C5.20465 4.84068 9.6818 0.363525 15.2046 0.363525H68.0752C73.5981 0.363525 78.0752 4.84068 78.0752 10.3635V62.6362C78.0752 68.1591 73.598 72.6362 68.0752 72.6362H15.2046C9.68179 72.6362 5.20465 68.1591 5.20465 62.6362V10.3635Z" fill="#CFCFCF"/>
<path d="M46.5451 28.5951V20.6902C46.5451 19.4429 47.5534 18.4317 48.7972 18.4317C50.0411 18.4317 51.0494 19.4429 51.0494 20.6902V28.5951H46.5451ZM54.4277 29.7243H29.6537C29.0318 29.7243 28.5276 30.2299 28.5276 30.8536V33.1121C28.5276 33.7358 29.0318 34.2414 29.6537 34.2414H30.7798V36.4999C30.7798 41.9631 34.6485 46.52 39.7885 47.5664V54.5681H44.2929V47.5664C49.4328 46.52 53.3016 41.9631 53.3016 36.4999V34.2414H54.4277C55.0496 34.2414 55.5538 33.7358 55.5538 33.1121V30.8536C55.5538 30.2299 55.0496 29.7243 54.4277 29.7243ZM37.5363 28.5951V20.6902C37.5363 19.4429 36.528 18.4317 35.2842 18.4317C34.0403 18.4317 33.032 19.4429 33.032 20.6902V28.5951H37.5363Z" fill="#29353C"/>
</svg>
