<svg width="494" height="480" viewBox="0 0 494 480" fill="none" xmlns="http://www.w3.org/2000/svg">
<mask id="path-1-outside-1_1_94" maskUnits="userSpaceOnUse" x="0.489258" y="0" width="493" height="480" fill="black">
<rect fill="white" x="0.489258" width="493" height="480"/>
<path d="M113.124 158.776H425.698V394.383L113.124 421.182V158.776Z"/>
<path d="M43.1452 158.776H113.124V421.182H43.1452V158.776Z"/>
<path d="M43.1452 394.496L169.458 442.307L169.458 457.127L172.782 463.267L176.106 470.636V476.776L171.441 477.888H166.775L158.611 476.776L151.176 475.548L146.19 474.32L142.866 473.092L46.1871 431.944C44.3426 431.159 43.1452 429.348 43.1452 427.343V394.496Z"/>
<path d="M159.777 437.86L464.195 410.063V440.066C464.195 442.609 462.285 444.748 459.758 445.034L165.339 478.37C162.374 478.706 159.777 476.386 159.777 473.402V437.86Z"/>
<path d="M113.124 406.727L425.698 382.265V394.496L113.124 421.182V406.727Z"/>
<path d="M43.1452 380.042L113.125 406.727V421.182L43.1452 394.496V380.042Z"/>
<path d="M276.41 216.594H395.375V402.047L276.41 412.287V216.594Z"/>
<path d="M297.404 236.608H376.714V383.426L297.404 390.049V236.608Z"/>
<path d="M351.055 236.608H369.716L298.57 322.223V298.874L351.055 236.608Z"/>
<path d="M376.714 236.608L376.714 246.43L297.404 343.349V331.119L376.714 236.608Z"/>
<path d="M376.713 296.65V312.217L318.397 387.825H305.567L376.713 296.65Z"/>
<path d="M379.047 302.373C379.047 300.441 380.613 298.874 382.546 298.874C384.478 298.874 386.045 300.441 386.045 302.373V315.389C386.045 317.322 384.478 318.888 382.546 318.888C380.613 318.888 379.047 317.322 379.047 315.389V302.373Z"/>
<path d="M369.817 307.176C368.771 307.169 367.931 306.315 367.94 305.27C367.949 304.225 368.803 303.384 369.848 303.391L384.182 303.495C385.228 303.502 386.068 304.356 386.059 305.401C386.05 306.446 385.196 307.287 384.151 307.28L369.817 307.176Z"/>
<path d="M143.448 236.608H248.417V341.979L143.448 347.797V236.608Z"/>
<path d="M152.78 245.504H190.102V334.606L152.78 336.678V245.504Z"/>
<path d="M179.605 246.159H190.102L153.327 294.426V279.972L179.605 246.159Z"/>
<path d="M189.943 250.259V256.622L152.779 306.657V299.563L189.943 250.259Z"/>
<path d="M190.101 279.972V292.203L159.777 335.567H153.945L152.779 333.343L190.101 279.972Z"/>
<path d="M204.098 245.504H241.42V332.386L204.098 334.455V245.504Z"/>
<path d="M230.923 246.159H241.42L204.644 294.426V279.972L230.923 246.159Z"/>
<path d="M241.26 249.951V256.314L204.097 306.349V299.255L241.26 249.951Z"/>
<path d="M241.419 279.972V292.203L213.427 333.343H204.097L241.419 279.972Z"/>
<path d="M113.124 421.182L426.189 394.496L463.02 410.063L160.314 438.972L113.124 421.182Z"/>
<path d="M43.1452 163.224L113.125 167.11V296.65L43.1452 279.81V163.224Z"/>
<path d="M113.124 296.65L425.698 158.776H113.124V296.65Z"/>
<path d="M284.572 22.0138L426.863 159.888H145.252L284.572 22.0138Z"/>
<path d="M309.066 108.741C309.066 121.637 298.1 132.091 284.573 132.091C271.046 132.091 260.08 121.637 260.08 108.741C260.08 95.8455 271.046 85.3915 284.573 85.3915C298.1 85.3915 309.066 95.8455 309.066 108.741Z"/>
<path d="M309.065 112.077C307.899 123.196 296.235 133.203 283.406 132.091C295.068 130.066 304.398 120.972 305.565 112.077C306.731 95.3985 295.068 86.5034 283.406 85.3915C293.903 83.1677 310.98 93.8203 309.065 112.077Z"/>
<path d="M284.572 22.0138L298.568 8.67117L459.52 162.112L424.531 159.888L284.572 22.0138Z"/>
<path d="M319.562 29.7972V2L491.32 168.227L488.776 169.339L481.525 171.563L475.483 172.675H470.649L468.232 171.563L465.815 169.339L464.591 168.227L319.562 29.7972Z"/>
<path d="M319.562 29.7972V2L104.958 169.895L110.79 172.119L117.788 174.343L123.62 175.454H128.285L130.618 174.343L132.95 172.119L134.132 171.007L319.562 29.7972Z"/>
<path d="M187.132 23.2675L316.477 3.11191L104.828 169.051L3.48926 158.987L187.132 23.2675Z"/>
</mask>
<path d="M113.124 158.776H425.698V394.383L113.124 421.182V158.776Z" fill="#D9D9D9"/>
<path d="M43.1452 158.776H113.124V421.182H43.1452V158.776Z" fill="#A9A9A9"/>
<path d="M43.1452 394.496L169.458 442.307L169.458 457.127L172.782 463.267L176.106 470.636V476.776L171.441 477.888H166.775L158.611 476.776L151.176 475.548L146.19 474.32L142.866 473.092L46.1871 431.944C44.3426 431.159 43.1452 429.348 43.1452 427.343V394.496Z" fill="#696969"/>
<path d="M159.777 437.86L464.195 410.063V440.066C464.195 442.609 462.285 444.748 459.758 445.034L165.339 478.37C162.374 478.706 159.777 476.386 159.777 473.402V437.86Z" fill="#D9D9D9"/>
<path d="M113.124 406.727L425.698 382.265V394.496L113.124 421.182V406.727Z" fill="#555F64"/>
<path d="M43.1452 380.042L113.125 406.727V421.182L43.1452 394.496V380.042Z" fill="#29353C"/>
<path d="M276.41 216.594H395.375V402.047L276.41 412.287V216.594Z" fill="#D9D9D9"/>
<path d="M297.404 236.608H376.714V383.426L297.404 390.049V236.608Z" fill="#EBEBEB"/>
<path d="M351.055 236.608H369.716L298.57 322.223V298.874L351.055 236.608Z" fill="white"/>
<path d="M376.714 236.608L376.714 246.43L297.404 343.349V331.119L376.714 236.608Z" fill="white"/>
<path d="M376.713 296.65V312.217L318.397 387.825H305.567L376.713 296.65Z" fill="white"/>
<path d="M379.047 302.373C379.047 300.441 380.613 298.874 382.546 298.874C384.478 298.874 386.045 300.441 386.045 302.373V315.389C386.045 317.322 384.478 318.888 382.546 318.888C380.613 318.888 379.047 317.322 379.047 315.389V302.373Z" fill="black"/>
<path d="M369.817 307.176C368.771 307.169 367.931 306.315 367.94 305.27C367.949 304.225 368.803 303.384 369.848 303.391L384.182 303.495C385.228 303.502 386.068 304.356 386.059 305.401C386.05 306.446 385.196 307.287 384.151 307.28L369.817 307.176Z" fill="black"/>
<path d="M143.448 236.608H248.417V341.979L143.448 347.797V236.608Z" fill="#D9D9D9"/>
<path d="M152.78 245.504H190.102V334.606L152.78 336.678V245.504Z" fill="#EBEBEB"/>
<path d="M179.605 246.159H190.102L153.327 294.426V279.972L179.605 246.159Z" fill="white"/>
<path d="M189.943 250.259V256.622L152.779 306.657V299.563L189.943 250.259Z" fill="white"/>
<path d="M190.101 279.972V292.203L159.777 335.567H153.945L152.779 333.343L190.101 279.972Z" fill="white"/>
<path d="M204.098 245.504H241.42V332.386L204.098 334.455V245.504Z" fill="#EBEBEB"/>
<path d="M230.923 246.159H241.42L204.644 294.426V279.972L230.923 246.159Z" fill="white"/>
<path d="M241.26 249.951V256.314L204.097 306.349V299.255L241.26 249.951Z" fill="white"/>
<path d="M241.419 279.972V292.203L213.427 333.343H204.097L241.419 279.972Z" fill="white"/>
<path d="M113.124 421.182L426.189 394.496L463.02 410.063L160.314 438.972L113.124 421.182Z" fill="white"/>
<path d="M43.1452 163.224L113.125 167.11V296.65L43.1452 279.81V163.224Z" fill="#696969" fill-opacity="0.45"/>
<path d="M113.124 296.65L425.698 158.776H113.124V296.65Z" fill="#A9A9A9" fill-opacity="0.45"/>
<path d="M284.572 22.0138L426.863 159.888H145.252L284.572 22.0138Z" fill="#A9A9A9"/>
<path d="M309.066 108.741C309.066 121.637 298.1 132.091 284.573 132.091C271.046 132.091 260.08 121.637 260.08 108.741C260.08 95.8455 271.046 85.3915 284.573 85.3915C298.1 85.3915 309.066 95.8455 309.066 108.741Z" fill="#D9D9D9"/>
<path d="M309.065 112.077C307.899 123.196 296.235 133.203 283.406 132.091C295.068 130.066 304.398 120.972 305.565 112.077C306.731 95.3985 295.068 86.5034 283.406 85.3915C293.903 83.1677 310.98 93.8203 309.065 112.077Z" fill="black"/>
<path d="M284.572 22.0138L298.568 8.67117L459.52 162.112L424.531 159.888L284.572 22.0138Z" fill="#D9D9D9"/>
<path d="M319.562 29.7972V2L491.32 168.227L488.776 169.339L481.525 171.563L475.483 172.675H470.649L468.232 171.563L465.815 169.339L464.591 168.227L319.562 29.7972Z" fill="#29353C"/>
<path d="M319.562 29.7972V2L104.958 169.895L110.79 172.119L117.788 174.343L123.62 175.454H128.285L130.618 174.343L132.95 172.119L134.132 171.007L319.562 29.7972Z" fill="#29353C"/>
<path d="M187.132 23.2675L316.477 3.11191L104.828 169.051L3.48926 158.987L187.132 23.2675Z" fill="#41525C"/>
<path d="M113.124 158.776V158.276H112.624V158.776H113.124ZM113.124 159.276H425.698V158.276H113.124V159.276ZM113.624 421.182V158.776H112.624V421.182H113.624ZM297.404 236.858H376.714V235.858H297.404V236.858ZM297.154 236.608V390.049H298.154V236.608H297.154ZM297.423 390.298L376.733 383.627L376.649 382.631L297.339 389.302L297.423 390.298ZM376.552 235.496V383.378H377.552V235.496H376.552ZM152.779 246.409H189.943V245.409H152.779V246.409ZM152.529 246.159V336.678H153.529V246.159H152.529ZM152.793 336.928L190.115 334.861L190.06 333.862L152.737 335.929L152.793 336.928ZM204.097 246.408H241.26V245.408H204.097V246.408ZM204.117 246.158V333.913H205.117V246.158H204.117ZM204.109 334.495L241.428 332.64L241.379 331.641L204.059 333.497L204.109 334.495ZM240.918 245.503V332.594H241.918V245.503H240.918ZM196.748 236.608V343.349H197.748V236.608H196.748ZM320.062 29.7972V2H319.062V29.7972H320.062ZM113.124 158.776H114.124V157.776H113.124V158.776ZM425.698 158.776H426.698V157.242L425.294 157.861L425.698 158.776ZM425.698 394.383L425.783 395.379L426.698 395.301V394.383H425.698ZM43.1452 158.776V157.776H42.1452V158.776H43.1452ZM43.1452 421.182H42.1452V422.182H43.1452V421.182ZM169.458 442.307L170.458 442.307L170.458 441.617L169.812 441.372L169.458 442.307ZM142.866 473.092L142.474 474.012L142.496 474.021L142.519 474.03L142.866 473.092ZM169.458 457.127L168.458 457.127L168.458 457.38L168.578 457.603L169.458 457.127ZM172.782 463.267L173.693 462.856L173.679 462.823L173.661 462.791L172.782 463.267ZM176.106 470.636H177.106V470.42L177.017 470.224L176.106 470.636ZM176.106 476.776L176.338 477.749L177.106 477.565V476.776H176.106ZM146.19 474.32L145.843 475.258L145.896 475.277L145.951 475.291L146.19 474.32ZM151.176 475.548L150.937 476.519L150.974 476.528L151.013 476.534L151.176 475.548ZM158.611 476.776L158.448 477.762L158.462 477.765L158.476 477.767L158.611 476.776ZM171.441 477.888V478.888H171.558L171.672 478.86L171.441 477.888ZM166.775 477.888L166.64 478.879L166.708 478.888H166.775V477.888ZM46.1871 431.944L45.7955 432.864L45.7955 432.864L46.1871 431.944ZM159.777 437.86L159.686 436.864L158.777 436.947V437.86H159.777ZM464.195 410.063H465.195V408.967L464.104 409.067L464.195 410.063ZM165.339 478.37L165.227 477.376L165.227 477.376L165.339 478.37ZM459.758 445.034L459.87 446.027L459.87 446.027L459.758 445.034ZM113.124 406.727L113.046 405.73L112.124 405.802V406.727H113.124ZM425.698 382.265H426.698V381.184L425.62 381.268L425.698 382.265ZM425.698 394.496L425.783 395.493L426.698 395.414V394.496H425.698ZM43.1452 380.042L43.5015 379.108L42.1452 378.591V380.042H43.1452ZM113.125 406.727H114.125V406.039L113.481 405.793L113.125 406.727ZM113.125 421.182L112.768 422.116L114.125 422.634V421.182H113.125ZM276.41 216.594V215.594H275.41V216.594H276.41ZM395.375 216.594H396.375V215.594H395.375V216.594ZM395.375 402.047L395.461 403.043L396.375 402.964V402.047H395.375ZM276.41 412.287H275.41V413.376L276.496 413.283L276.41 412.287ZM297.404 236.608V235.608H296.404V236.608H297.404ZM376.714 236.608L377.714 236.608L377.714 235.608H376.714V236.608ZM376.714 383.426L376.797 384.422L377.714 384.346V383.426H376.714ZM297.404 390.049H296.404V391.136L297.487 391.046L297.404 390.049ZM351.055 236.608V235.608H350.59L350.29 235.964L351.055 236.608ZM369.716 236.608L370.485 237.247L371.847 235.608H369.716V236.608ZM298.57 322.223H297.57V324.991L299.339 322.863L298.57 322.223ZM298.57 298.874L297.806 298.229L297.57 298.509V298.874H298.57ZM376.714 246.43L377.488 247.063L377.714 246.787L377.714 246.43L376.714 246.43ZM297.404 343.349H296.404V346.15L298.178 343.983L297.404 343.349ZM297.404 331.119L296.638 330.476L296.404 330.755V331.119H297.404ZM376.713 296.65H377.713V293.743L375.924 296.035L376.713 296.65ZM376.713 312.217L377.505 312.827L377.713 312.557V312.217H376.713ZM318.397 387.825V388.825H318.888L319.189 388.436L318.397 387.825ZM305.567 387.825L304.779 387.21L303.518 388.825H305.567V387.825ZM384.151 307.28L384.158 306.28L384.158 306.28L384.151 307.28ZM384.182 303.495L384.19 302.495L384.19 302.495L384.182 303.495ZM369.848 303.391L369.841 304.391L369.841 304.391L369.848 303.391ZM369.817 307.176L369.809 308.176L369.809 308.176L369.817 307.176ZM143.448 236.608V235.608H142.448V236.608H143.448ZM248.417 236.608H249.417V235.608H248.417V236.608ZM248.417 341.979L248.472 342.978L249.417 342.925V341.979H248.417ZM143.448 347.797H142.448V348.854L143.504 348.796L143.448 347.797ZM152.78 245.504V244.504H151.78V245.504H152.78ZM190.102 245.504H191.102V244.504H190.102V245.504ZM190.102 334.606L190.157 335.605L191.102 335.552V334.606H190.102ZM152.78 336.678H151.78V337.736L152.835 337.677L152.78 336.678ZM179.605 246.159V245.159H179.116L178.816 245.545L179.605 246.159ZM190.102 246.159L190.898 246.765L192.121 245.159H190.102V246.159ZM153.327 294.426H152.327V297.389L154.122 295.032L153.327 294.426ZM153.327 279.972L152.537 279.358L152.327 279.629V279.972H153.327ZM189.943 250.259H190.943V247.271L189.144 249.657L189.943 250.259ZM189.943 256.622L190.745 257.219L190.943 256.953V256.622H189.943ZM152.779 306.657H151.779V309.681L153.582 307.254L152.779 306.657ZM152.779 299.563L151.98 298.961L151.779 299.229V299.563H152.779ZM190.101 279.972H191.101V276.797L189.282 279.399L190.101 279.972ZM190.101 292.203L190.921 292.776L191.101 292.518V292.203H190.101ZM159.777 335.567V336.567H160.298L160.596 336.14L159.777 335.567ZM152.779 333.343L151.959 332.77L151.611 333.268L151.893 333.807L152.779 333.343ZM153.945 335.567L153.06 336.031L153.34 336.567H153.945V335.567ZM204.098 245.504V244.504H203.098V245.504H204.098ZM241.42 245.504H242.42V244.504H241.42V245.504ZM241.42 332.386L241.475 333.385L242.42 333.332V332.386H241.42ZM204.098 334.455H203.098V335.512L204.153 335.453L204.098 334.455ZM230.923 246.159V245.159H230.434L230.133 245.545L230.923 246.159ZM241.42 246.159L242.215 246.765L243.439 245.159H241.42V246.159ZM204.644 294.426H203.644V297.389L205.44 295.032L204.644 294.426ZM204.644 279.972L203.855 279.358L203.644 279.629V279.972H204.644ZM241.26 249.951H242.26V246.963L240.462 249.349L241.26 249.951ZM241.26 256.314L242.063 256.91L242.26 256.645V256.314H241.26ZM204.097 306.349H203.097V309.372L204.899 306.945L204.097 306.349ZM204.097 299.255L203.298 298.653L203.097 298.92V299.255H204.097ZM241.419 279.972H242.419V276.797L240.599 279.399L241.419 279.972ZM241.419 292.203L242.246 292.765L242.419 292.511V292.203H241.419ZM213.427 333.343V334.343H213.956L214.254 333.905L213.427 333.343ZM204.097 333.343L203.277 332.769L202.177 334.343H204.097V333.343ZM426.189 394.496L426.578 393.575L426.35 393.479L426.104 393.5L426.189 394.496ZM463.02 410.063L463.115 411.058L463.409 409.141L463.02 410.063ZM160.314 438.972L159.961 439.907L160.178 439.989L160.409 439.967L160.314 438.972ZM43.1452 163.224L43.2007 162.225L42.1452 162.167V163.224H43.1452ZM113.125 167.11H114.125V166.164L113.18 166.112L113.125 167.11ZM113.125 296.65L112.891 297.623L114.125 297.919V296.65H113.125ZM43.1452 279.81H42.1452V280.598L42.9113 280.782L43.1452 279.81ZM113.124 296.65H112.124V298.184L113.527 297.565L113.124 296.65ZM284.572 22.0138L283.882 21.29L283.875 21.2964L283.868 21.303L284.572 22.0138ZM426.863 159.888V160.888H429.332L427.559 159.17L426.863 159.888ZM145.252 159.888L144.549 159.177L142.82 160.888H145.252V159.888ZM309.065 112.077L308.07 111.972L309.065 112.077ZM283.406 132.091L283.235 131.106L283.319 133.087L283.406 132.091ZM305.565 112.077L306.556 112.207L306.56 112.177L306.562 112.147L305.565 112.077ZM283.406 85.3915L283.199 84.4132L283.311 86.387L283.406 85.3915ZM298.568 8.67117L299.258 7.94737L298.568 7.28956L297.878 7.94737L298.568 8.67117ZM459.52 162.112L459.457 163.11L462.199 163.284L460.21 161.388L459.52 162.112ZM424.531 159.888L423.829 160.6L424.095 160.862L424.467 160.886L424.531 159.888ZM319.562 29.7972L320.252 29.0738L319.635 28.4846L318.956 29.0016L319.562 29.7972ZM319.562 2L320.257 1.28142L319.631 0.675809L318.945 1.2124L319.562 2ZM491.32 168.227L491.72 169.144L493.087 168.546L492.015 167.509L491.32 168.227ZM464.591 168.227L463.9 168.951L463.909 168.959L463.918 168.968L464.591 168.227ZM488.776 169.339L489.069 170.295L489.124 170.278L489.177 170.255L488.776 169.339ZM475.483 172.675V173.675H475.574L475.664 173.658L475.483 172.675ZM465.815 169.339L466.492 168.603L466.487 168.599L465.815 169.339ZM468.232 171.563L467.555 172.299L467.671 172.406L467.814 172.471L468.232 171.563ZM470.649 172.675L470.231 173.583L470.43 173.675H470.649V172.675ZM481.525 171.563L481.706 172.546L481.763 172.536L481.819 172.519L481.525 171.563ZM104.958 169.895L104.342 169.107L102.948 170.199L104.602 170.829L104.958 169.895ZM134.132 171.007L133.526 170.211L133.485 170.243L133.447 170.279L134.132 171.007ZM110.79 172.119L110.434 173.053L110.46 173.063L110.487 173.072L110.79 172.119ZM123.62 175.454L123.432 176.437L123.525 176.454H123.62V175.454ZM132.95 172.119L132.265 171.391L132.26 171.395L132.95 172.119ZM130.618 174.343L131.048 175.245L131.192 175.177L131.308 175.066L130.618 174.343ZM128.285 175.454V176.454H128.511L128.715 176.357L128.285 175.454ZM117.788 174.343L117.485 175.296L117.542 175.314L117.601 175.325L117.788 174.343ZM187.132 23.2675L186.978 22.2794L186.735 22.3172L186.538 22.4633L187.132 23.2675ZM316.477 3.11191L317.094 3.89887L320.111 1.53359L316.323 2.12383L316.477 3.11191ZM104.828 169.051L104.729 170.046L105.129 170.085L105.445 169.837L104.828 169.051ZM3.48926 158.987L2.89491 158.183L0.807336 159.726L3.39044 159.983L3.48926 158.987ZM424.698 158.776V394.383H426.698V158.776H424.698ZM425.612 393.386L113.038 420.185L113.209 422.178L425.783 395.379L425.612 393.386ZM43.1452 159.776H113.124V157.776H43.1452V159.776ZM113.124 420.182H43.1452V422.182H113.124V420.182ZM44.1452 421.182V158.776H42.1452V421.182H44.1452ZM42.7912 395.431L169.104 443.243L169.812 441.372L43.4992 393.561L42.7912 395.431ZM143.257 472.172L46.5788 431.024L45.7955 432.864L142.474 474.012L143.257 472.172ZM44.1452 427.343V394.496H42.1452V427.343H44.1452ZM168.458 442.307L168.458 457.127L170.458 457.127L170.458 442.307L168.458 442.307ZM168.578 457.603L171.902 463.743L173.661 462.791L170.337 456.651L168.578 457.603ZM175.106 470.636V476.776H177.106V470.636H175.106ZM146.536 473.382L143.212 472.154L142.519 474.03L145.843 475.258L146.536 473.382ZM151.415 474.577L146.429 473.349L145.951 475.291L150.937 476.519L151.415 474.577ZM158.774 475.789L151.339 474.561L151.013 476.534L158.448 477.762L158.774 475.789ZM175.874 475.803L171.209 476.915L171.672 478.86L176.338 477.749L175.874 475.803ZM171.441 476.888H166.775V478.888H171.441V476.888ZM166.91 476.897L158.746 475.785L158.476 477.767L166.64 478.879L166.91 476.897ZM46.5788 431.024C45.1031 430.396 44.1452 428.947 44.1452 427.343H42.1452C42.1452 429.749 43.582 431.922 45.7955 432.864L46.5788 431.024ZM159.867 438.856L464.286 411.059L464.104 409.067L159.686 436.864L159.867 438.856ZM463.195 410.063V440.066H465.195V410.063H463.195ZM459.645 444.04L165.227 477.376L165.452 479.364L459.87 446.027L459.645 444.04ZM160.777 473.402V437.86H158.777V473.402H160.777ZM165.227 477.376C162.854 477.645 160.777 475.789 160.777 473.402H158.777C158.777 476.983 161.893 479.767 165.452 479.364L165.227 477.376ZM463.195 440.066C463.195 442.101 461.667 443.811 459.645 444.04L459.87 446.027C462.903 445.684 465.195 443.118 465.195 440.066H463.195ZM113.202 407.724L425.776 383.262L425.62 381.268L113.046 405.73L113.202 407.724ZM424.698 382.265V394.496H426.698V382.265H424.698ZM425.613 393.5L113.038 420.185L113.209 422.178L425.783 395.493L425.613 393.5ZM114.124 421.182V406.727H112.124V421.182H114.124ZM42.7889 380.977L112.768 407.662L113.481 405.793L43.5015 379.108L42.7889 380.977ZM112.125 406.727V421.182H114.125V406.727H112.125ZM113.481 420.248L43.5015 393.562L42.7889 395.43L112.768 422.116L113.481 420.248ZM44.1452 394.496V380.042H42.1452V394.496H44.1452ZM276.41 217.594H395.375V215.594H276.41V217.594ZM394.375 216.594V402.047H396.375V216.594H394.375ZM395.289 401.051L276.324 411.29L276.496 413.283L395.461 403.043L395.289 401.051ZM277.41 412.287V216.594H275.41V412.287H277.41ZM297.404 237.608H376.714V235.608H297.404V237.608ZM375.714 236.608V383.426H377.714V236.608H375.714ZM376.63 382.429L297.321 389.052L297.487 391.046L376.797 384.422L376.63 382.429ZM298.404 390.049V236.608H296.404V390.049H298.404ZM351.055 237.608H369.716V235.608H351.055V237.608ZM368.947 235.969L297.801 321.584L299.339 322.863L370.485 237.247L368.947 235.969ZM299.57 322.223V298.874H297.57V322.223H299.57ZM299.335 299.518L351.819 237.253L350.29 235.964L297.806 298.229L299.335 299.518ZM375.714 236.608L375.714 246.43L377.714 246.43L377.714 236.608L375.714 236.608ZM375.94 245.796L296.63 342.716L298.178 343.983L377.488 247.063L375.94 245.796ZM298.404 343.349V331.119H296.404V343.349H298.404ZM298.17 331.761L377.48 237.251L375.948 235.966L296.638 330.476L298.17 331.761ZM375.713 296.65V312.217H377.713V296.65H375.713ZM375.921 311.606L317.605 387.214L319.189 388.436L377.505 312.827L375.921 311.606ZM318.397 386.825H305.567V388.825H318.397V386.825ZM306.356 388.44L377.501 297.265L375.924 296.035L304.779 387.21L306.356 388.44ZM385.045 302.373V315.389H387.045V302.373H385.045ZM380.047 315.389V302.373H378.047V315.389H380.047ZM382.546 317.888C381.165 317.888 380.047 316.769 380.047 315.389H378.047C378.047 317.874 380.061 319.888 382.546 319.888V317.888ZM385.045 315.389C385.045 316.769 383.926 317.888 382.546 317.888V319.888C385.03 319.888 387.045 317.874 387.045 315.389H385.045ZM382.546 299.874C383.926 299.874 385.045 300.993 385.045 302.373H387.045C387.045 299.888 385.03 297.874 382.546 297.874V299.874ZM382.546 297.874C380.061 297.874 378.047 299.888 378.047 302.373H380.047C380.047 300.993 381.165 299.874 382.546 299.874V297.874ZM369.841 304.391L384.175 304.495L384.19 302.495L369.856 302.391L369.841 304.391ZM384.158 306.28L369.824 306.176L369.809 308.176L384.143 308.28L384.158 306.28ZM385.059 305.393C385.055 305.886 384.651 306.283 384.158 306.28L384.143 308.28C385.74 308.291 387.045 307.006 387.059 305.409L385.059 305.393ZM384.175 304.495C384.668 304.498 385.063 304.9 385.059 305.393L387.059 305.409C387.072 303.811 385.787 302.506 384.19 302.495L384.175 304.495ZM368.94 305.279C368.944 304.785 369.348 304.388 369.841 304.391L369.856 302.391C368.259 302.38 366.953 303.665 366.94 305.262L368.94 305.279ZM366.94 305.262C366.927 306.86 368.211 308.165 369.809 308.176L369.824 306.176C369.331 306.173 368.936 305.771 368.94 305.279L366.94 305.262ZM143.448 237.608H248.417V235.608H143.448V237.608ZM247.417 236.608V341.979H249.417V236.608H247.417ZM248.362 340.981L143.393 346.799L143.504 348.796L248.472 342.978L248.362 340.981ZM144.448 347.797V236.608H142.448V347.797H144.448ZM152.78 246.504H190.102V244.504H152.78V246.504ZM189.102 245.504V334.606H191.102V245.504H189.102ZM190.047 333.608L152.724 335.68L152.835 337.677L190.157 335.605L190.047 333.608ZM153.78 336.678V245.504H151.78V336.678H153.78ZM179.605 247.159H190.102V245.159H179.605V247.159ZM189.307 245.553L152.531 293.82L154.122 295.032L190.898 246.765L189.307 245.553ZM154.327 294.426V279.972H152.327V294.426H154.327ZM154.116 280.585L180.395 246.773L178.816 245.545L152.537 279.358L154.116 280.585ZM188.943 250.259V256.622H190.943V250.259H188.943ZM189.14 256.026L151.976 306.061L153.582 307.254L190.745 257.219L189.14 256.026ZM153.779 306.657V299.563H151.779V306.657H153.779ZM153.577 300.165L190.741 250.861L189.144 249.657L151.98 298.961L153.577 300.165ZM189.101 279.972V292.203H191.101V279.972H189.101ZM189.282 291.63L158.957 334.994L160.596 336.14L190.921 292.776L189.282 291.63ZM153.598 333.916L190.921 280.545L189.282 279.399L151.959 332.77L153.598 333.916ZM159.777 334.567H153.945V336.567H159.777V334.567ZM154.831 335.102L153.664 332.878L151.893 333.807L153.06 336.031L154.831 335.102ZM204.098 246.504H241.42V244.504H204.098V246.504ZM240.42 245.504V332.386H242.42V245.504H240.42ZM241.365 331.388L204.042 333.456L204.153 335.453L241.475 333.385L241.365 331.388ZM205.098 334.455V245.504H203.098V334.455H205.098ZM230.923 247.159H241.42V245.159H230.923V247.159ZM240.624 245.553L203.849 293.82L205.44 295.032L242.215 246.765L240.624 245.553ZM205.644 294.426V279.972H203.644V294.426H205.644ZM205.434 280.585L231.713 246.773L230.133 245.545L203.855 279.358L205.434 280.585ZM240.26 249.951V256.314H242.26V249.951H240.26ZM240.458 255.718L203.294 305.753L204.899 306.945L242.063 256.91L240.458 255.718ZM205.097 306.349V299.255H203.097V306.349H205.097ZM204.895 299.857L242.059 250.553L240.462 249.349L203.298 298.653L204.895 299.857ZM240.419 279.972V292.203H242.419V279.972H240.419ZM240.592 291.64L212.6 332.78L214.254 333.905L242.246 292.765L240.592 291.64ZM204.916 333.916L242.238 280.545L240.599 279.399L203.277 332.769L204.916 333.916ZM113.208 422.178L426.274 395.493L426.104 393.5L113.039 420.185L113.208 422.178ZM425.799 395.417L462.631 410.984L463.409 409.141L426.578 393.575L425.799 395.417ZM462.925 409.067L160.218 437.976L160.409 439.967L463.115 411.058L462.925 409.067ZM160.666 438.036L113.476 420.246L112.771 422.117L159.961 439.907L160.666 438.036ZM43.0898 164.222L113.069 168.108L113.18 166.112L43.2007 162.225L43.0898 164.222ZM112.125 167.11V296.65H114.125V167.11H112.125ZM113.358 295.678L43.3792 278.838L42.9113 280.782L112.891 297.623L113.358 295.678ZM44.1452 279.81V163.224H42.1452V279.81H44.1452ZM113.527 297.565L426.101 159.691L425.294 157.861L112.72 295.735L113.527 297.565ZM112.124 158.776V296.65H114.124V158.776H112.124ZM283.876 22.732L426.167 160.606L427.559 159.17L285.268 21.2956L283.876 22.732ZM426.863 158.888H145.252V160.888H426.863V158.888ZM145.956 160.599L285.275 22.7246L283.868 21.303L144.549 159.177L145.956 160.599ZM308.066 108.741C308.066 121.04 297.594 131.091 284.573 131.091V133.091C298.607 133.091 310.066 122.234 310.066 108.741H308.066ZM284.573 131.091C271.553 131.091 261.08 121.04 261.08 108.741H259.08C259.08 122.234 270.54 133.091 284.573 133.091V131.091ZM261.08 108.741C261.08 96.4423 271.553 86.3915 284.573 86.3915V84.3915C270.54 84.3915 259.08 95.2487 259.08 108.741H261.08ZM284.573 86.3915C297.594 86.3915 308.066 96.4423 308.066 108.741H310.066C310.066 95.2487 298.607 84.3915 284.573 84.3915V86.3915ZM308.07 111.972C306.963 122.526 295.802 132.161 283.492 131.095L283.319 133.087C296.669 134.244 308.834 123.865 310.059 112.181L308.07 111.972ZM283.577 133.076C289.608 132.029 295.03 129.156 299.1 125.395C303.162 121.64 305.935 116.942 306.556 112.207L304.573 111.947C304.028 116.107 301.553 120.403 297.742 123.926C293.94 127.441 288.865 130.128 283.235 131.106L283.577 133.076ZM306.562 112.147C307.164 103.543 304.452 96.8697 300.021 92.2078C295.607 87.5642 289.541 84.9719 283.501 84.396L283.311 86.387C288.933 86.923 294.53 89.3342 298.571 93.5857C302.595 97.8189 305.132 103.933 304.567 112.007L306.562 112.147ZM283.613 86.3698C288.479 85.3388 295.063 87.2912 300.232 91.8071C305.36 96.2872 308.99 103.206 308.07 111.972L310.059 112.181C311.055 102.691 307.104 95.1554 301.548 90.301C296.033 85.4824 288.829 83.2204 283.199 84.4132L283.613 86.3698ZM285.262 22.7376L299.258 9.39496L297.878 7.94737L283.882 21.29L285.262 22.7376ZM297.878 9.39496L458.83 162.835L460.21 161.388L299.258 7.94737L297.878 9.39496ZM459.584 161.114L424.594 158.89L424.467 160.886L459.457 163.11L459.584 161.114ZM425.232 159.176L285.274 21.3014L283.87 22.7262L423.829 160.6L425.232 159.176ZM318.866 2.71858L490.624 168.946L492.015 167.509L320.257 1.28142L318.866 2.71858ZM465.281 167.504L320.252 29.0738L318.871 30.5206L463.9 168.951L465.281 167.504ZM490.919 167.311L488.376 168.423L489.177 170.255L491.72 169.144L490.919 167.311ZM466.487 168.599L465.263 167.487L463.918 168.968L465.143 170.079L466.487 168.599ZM471.067 171.766L468.65 170.654L467.814 172.471L470.231 173.583L471.067 171.766ZM481.344 170.579L475.302 171.691L475.664 173.658L481.706 172.546L481.344 170.579ZM318.945 1.2124L104.342 169.107L105.575 170.683L320.178 2.7876L318.945 1.2124ZM134.738 171.803L320.167 30.5928L318.956 29.0016L133.526 170.211L134.738 171.803ZM104.602 170.829L110.434 173.053L111.146 171.184L105.315 168.961L104.602 170.829ZM133.635 172.847L134.817 171.735L133.447 170.279L132.265 171.391L133.635 172.847ZM128.715 176.357L131.048 175.245L130.187 173.44L127.855 174.552L128.715 176.357ZM117.601 175.325L123.432 176.437L123.807 174.472L117.975 173.36L117.601 175.325ZM187.286 24.2555L316.631 4.09999L316.323 2.12383L186.978 22.2794L187.286 24.2555ZM315.86 2.32495L104.211 168.264L105.445 169.837L317.094 3.89887L315.86 2.32495ZM104.927 168.055L3.58807 157.992L3.39044 159.983L104.729 170.046L104.927 168.055ZM4.0836 159.792L187.726 24.0717L186.538 22.4633L2.89491 158.183L4.0836 159.792ZM171.87 463.678L175.194 471.047L177.017 470.224L173.693 462.856L171.87 463.678ZM213.427 332.343H204.097V334.343H213.427V332.343ZM468.909 170.827L466.492 168.603L465.138 170.075L467.555 172.299L468.909 170.827ZM475.483 171.675H470.649V173.675H475.483V171.675ZM488.483 168.383L481.232 170.607L481.819 172.519L489.069 170.295L488.483 168.383ZM131.308 175.066L133.64 172.843L132.26 171.395L129.928 173.619L131.308 175.066ZM123.62 176.454H128.285V174.454H123.62V176.454ZM110.487 173.072L117.485 175.296L118.091 173.39L111.093 171.166L110.487 173.072Z" fill="black" mask="url(#path-1-outside-1_1_94)"/>
</svg>
